<?xml version="1.0" encoding="UTF-8"?><svg id="Layer_2" xmlns="http://www.w3.org/2000/svg" viewBox="0 0 76.5997 76.5918"><g id="Components"><g id="_x32_9414058-301b-4d05-be55-13a1e0a9aa73_x40_1"><path d="M50.9806,74.333c-3.3558,1.2907-7.8269,2.2589-12.7127,2.2589s-9.293-.9681-12.6489-2.2589c1.0973-.5806,2.2585-1.1615,3.4204-1.6779,2.9036-1.2903,5.9372-2.3877,9.2285-2.3877s6.3886,1.0973,9.2923,2.3877c1.1611.5164,2.3231,1.0973,3.4204,1.6779Z" fill="currentColor"/><path d="M38.268,0C17.1658,0,0,17.1654,0,38.3322c0,.9032.0638,1.8713.1284,2.7748.1292,2.2585.4522,4.3881,1.0335,6.5178,1.6133.7098,3.162,1.2257,4.6461,1.6133.9028.258,1.8071.3872,2.6453.3872,1.6133.1288,3.162,0,4.7753-.3872,2.453-.581,5.0337-1.6779,7.6151-2.9686,2.5814-1.2261,5.3559-2.7748,8.1957-4.0656,2.9036-1.2907,5.9372-2.3877,9.2285-2.3877s6.3886,1.0969,9.2923,2.3877c2.839,1.2907,5.5497,2.8394,8.1957,4.0656,2.5807,1.2907,5.0983,2.3877,7.6144,2.9686,1.6133.3872,3.2266.516,4.8399.3872.839-.0646,1.7425-.1938,2.5814-.3872,1.4841-.3876,3.0336-.9035,4.6469-1.6133.5152-2.1297.9028-4.2593,1.0319-6.5178.0646-.9035.1292-1.8717.1292-2.7748C76.5997,17.1654,59.4339,0,38.268,0Z" fill="currentColor"/><path d="M72.8563,54.7153c-1.1611,2.5169-2.5807,4.8399-4.3232,6.9696-1.7425.1934-3.4204.1288-5.1629-.2584-2.5161-.6452-5.0337-1.6779-7.6144-2.9682-2.646-1.2907-5.3567-2.7748-8.1957-4.0656-2.9036-1.2907-6.0011-2.3877-9.2923-2.3877s-6.3248,1.0969-9.2285,2.3877c-2.8398,1.2907-5.6143,2.7748-8.1957,4.0656-2.5814,1.2903-5.1621,2.3231-7.6151,2.9682-1.7425.3872-3.4204.4518-5.1621.2584-1.7425-2.1297-3.2266-4.4527-4.3885-6.9696.7105.1934,1.4195.3872,2.1301.5806,2.4515.581,4.9045.581,7.4206,0,2.453-.5806,5.0337-1.6133,7.6151-2.9036,2.5814-1.2907,5.3559-2.8394,8.1957-4.0656,2.9036-1.2907,5.9372-2.3877,9.2285-2.3877s6.3886,1.0969,9.2923,2.3877c2.839,1.2261,5.5497,2.7748,8.1957,4.0656,2.5807,1.2903,5.0983,2.3231,7.6144,2.9036,2.4523.581,4.9045.581,7.4214,0,.6452-.1288,1.3557-.3226,2.0647-.5806Z" fill="currentColor"/><path d="M63.1119,67.428c-1.7425,1.5491-3.678,2.904-5.7427,4.001-.5168-.258-1.0973-.516-1.6133-.7744-2.646-1.2903-5.3567-2.7748-8.1957-4.0656-2.9036-1.2903-6.0011-2.3877-9.2923-2.3877s-6.3248,1.0973-9.2285,2.3877c-2.8398,1.2907-5.6143,2.7752-8.1957,4.0656-.516.2584-1.0973.5164-1.6133.7744-2.0647-1.0969-4.001-2.4519-5.7435-4.001,2.3877-.5806,4.8399-1.6775,7.3568-2.8394,2.5814-1.2903,5.3559-2.8394,8.1957-4.1298,2.9036-1.2907,5.9372-2.3877,9.2285-2.3877s6.3886,1.0969,9.2923,2.3877c2.839,1.2903,5.5497,2.8394,8.1957,4.1298,2.5161,1.1619,4.9045,2.2589,7.356,2.8394Z" fill="currentColor"/></g></g></svg>
